<?xml version="1.0" standalone="no"?><!DOCTYPE svg PUBLIC "-//W3C//DTD SVG 1.1//EN" "http://www.w3.org/Graphics/SVG/1.1/DTD/svg11.dtd"><svg t="1781882509211" class="icon" viewBox="0 0 1024 1024" version="1.1" xmlns="http://www.w3.org/2000/svg" p-id="6842" xmlns:xlink="http://www.w3.org/1999/xlink" width="64" height="64"><path d="M750.144 8l0.064 126c81.712 0.696 138.168 8.752 193.224 107.856l72.568 0.128v94.44l-63-0.064V1016h-63v-177.408H574.936L575 1016l-79.632-3.16v-0.504H8V612.92L252.504 350.4h-0.824V8h498.464z m139.856 568.064H575V744.16h315V576.064zM273.864 393.496L69.488 612.872h408.808L273.864 393.496zM705.912 53.664h-410V350.4h-0.88l200.28 214.96V336.352h-77.496V242.04l103.632-0.12c54.304-99.104 103.832-107.168 184.336-107.92V53.664h0.128z m184.088 282.688H575v145.28h315v-145.28zM728.08 179.664c-89.392 0-119.816 9.264-145.144 62.248h302.28c-18.16-52.104-65.28-61.24-152.4-62.248h-4.736z" p-id="6843" fill="#1196db"></path></svg>